HIERARCHY
ROOT Hips
{
	OFFSET 0.000000 89.005402 0.000000
	CHANNELS 6 Xposition Yposition Zposition Xrotation Yrotation Zrotation
	JOINT Spine
	{
		OFFSET 0.116900 10.681000 0.373400
		CHANNELS 3 Xrotation Yrotation Zrotation
		JOINT Spine1
		{
			OFFSET 0.000000 13.840401 0.053500
			CHANNELS 3 Xrotation Yrotation Zrotation
			JOINT Spine2
			{
				OFFSET 0.000000 14.712700 -0.366200
				CHANNELS 3 Xrotation Yrotation Zrotation
				JOINT Neck
				{
					OFFSET 0.000000 35.415497 -3.314200
					CHANNELS 3 Xrotation Yrotation Zrotation
					JOINT Head
					{
						OFFSET 0.000000 16.899200 1.218300
						CHANNELS 3 Xrotation Yrotation Zrotation
						JOINT HeadTop_End
						{
							OFFSET 0.000000 22.206207 2.192500
							CHANNELS 3 Xrotation Yrotation Zrotation
							End Site
							{
								OFFSET 0.000000 22.314178 0.000000
							}
						}
					}
				}
				JOINT LeftShoulder
				{
					OFFSET 12.896400 26.716293 -4.548400
					CHANNELS 3 Xrotation Yrotation Zrotation
					JOINT LeftArm
					{
						OFFSET 19.027000 -4.857010 -1.718400
						CHANNELS 3 Xrotation Yrotation Zrotation
						JOINT LeftForeArm
						{
							OFFSET 24.179897 0.000000 0.000000
							CHANNELS 3 Xrotation Yrotation Zrotation
							JOINT LeftHand
							{
								OFFSET 27.156403 0.000000 0.000000
								CHANNELS 3 Xrotation Yrotation Zrotation
								JOINT LeftHandIndex1
								{
									OFFSET 16.441200 0.000000 0.000000
									CHANNELS 3 Xrotation Yrotation Zrotation
									JOINT LeftHandIndex2
									{
										OFFSET 4.821899 0.000000 0.000000
										CHANNELS 3 Xrotation Yrotation Zrotation
										JOINT LeftHandIndex3
										{
											OFFSET 6.386497 0.000000 0.000000
											CHANNELS 3 Xrotation Yrotation Zrotation
											JOINT LeftHandIndex4
											{
												OFFSET 5.188988 0.000000 0.000000
												CHANNELS 3 Xrotation Yrotation Zrotation
												End Site
												{
													OFFSET -0.178703 5.185913 0.000177
												}
											}
										}
									}
								}
								JOINT LeftHandThumb1
								{
									OFFSET 6.534897 -5.032593 5.900300
									CHANNELS 3 Xrotation Yrotation Zrotation
									JOINT LeftHandThumb2
									{
										OFFSET 3.818176 -2.204422 2.204423
										CHANNELS 3 Xrotation Yrotation Zrotation
										JOINT LeftHandThumb3
										{
											OFFSET 3.252098 -1.877594 1.877601
											CHANNELS 3 Xrotation Yrotation Zrotation
											JOINT LeftHandThumb4
											{
												OFFSET 5.251778 -3.032120 3.032117
												CHANNELS 3 Xrotation Yrotation Zrotation
												End Site
												{
													OFFSET 0.000023 6.780014 0.000000
												}
											}
										}
									}
								}
							}
						}
					}
				}
				JOINT RightShoulder
				{
					OFFSET -12.896300 26.716293 -4.548400
					CHANNELS 3 Xrotation Yrotation Zrotation
					JOINT RightArm
					{
						OFFSET -19.027000 -4.857010 -1.718400
						CHANNELS 3 Xrotation Yrotation Zrotation
						JOINT RightForeArm
						{
							OFFSET -24.179897 0.000000 0.000000
							CHANNELS 3 Xrotation Yrotation Zrotation
							JOINT RightHand
							{
								OFFSET -27.156403 0.000000 0.000000
								CHANNELS 3 Xrotation Yrotation Zrotation
								JOINT RightHandThumb1
								{
									OFFSET -6.591202 -4.852203 5.988100
									CHANNELS 3 Xrotation Yrotation Zrotation
									JOINT RightHandThumb2
									{
										OFFSET -3.818176 -2.204422 2.204423
										CHANNELS 3 Xrotation Yrotation Zrotation
										JOINT RightHandThumb3
										{
											OFFSET -3.252098 -1.877594 1.877601
											CHANNELS 3 Xrotation Yrotation Zrotation
											JOINT RightHandThumb4
											{
												OFFSET -5.251778 -3.032120 3.032117
												CHANNELS 3 Xrotation Yrotation Zrotation
												End Site
												{
													OFFSET -0.000023 6.780014 0.000000
												}
											}
										}
									}
								}
								JOINT RightHandIndex1
								{
									OFFSET -16.029404 0.000000 0.000000
									CHANNELS 3 Xrotation Yrotation Zrotation
									JOINT RightHandIndex2
									{
										OFFSET -5.213303 0.000000 0.000000
										CHANNELS 3 Xrotation Yrotation Zrotation
										JOINT RightHandIndex3
										{
											OFFSET -6.386528 0.000000 0.000000
											CHANNELS 3 Xrotation Yrotation Zrotation
											JOINT RightHandIndex4
											{
												OFFSET -5.189026 0.000000 0.000000
												CHANNELS 3 Xrotation Yrotation Zrotation
												End Site
												{
													OFFSET 0.236702 5.183624 0.001972
												}
											}
										}
									}
								}
							}
						}
					}
				}
			}
		}
	}
	JOINT LeftUpLeg
	{
		OFFSET 14.073000 -7.904099 -1.463000
		CHANNELS 3 Xrotation Yrotation Zrotation
		JOINT LeftLeg
		{
			OFFSET -0.109806 -34.073280 4.093200
			CHANNELS 3 Xrotation Yrotation Zrotation
			JOINT LeftFoot
			{
				OFFSET 0.109806 -29.899420 -6.319000
				CHANNELS 3 Xrotation Yrotation Zrotation
				JOINT LeftToeBase
				{
					OFFSET 1.551100 -14.988700 20.535801
					CHANNELS 3 Xrotation Yrotation Zrotation
					JOINT LeftToe_End
					{
						OFFSET 0.221200 0.570800 13.248301
						CHANNELS 3 Xrotation Yrotation Zrotation
						End Site
						{
							OFFSET 0.000000 13.262435 0.000000
						}
					}
				}
			}
		}
	}
	JOINT RightUpLeg
	{
		OFFSET -13.839300 -7.904099 -1.463000
		CHANNELS 3 Xrotation Yrotation Zrotation
		JOINT RightLeg
		{
			OFFSET 0.109694 -34.073219 4.093300
			CHANNELS 3 Xrotation Yrotation Zrotation
			JOINT RightFoot
			{
				OFFSET -0.109694 -29.899384 -6.319200
				CHANNELS 3 Xrotation Yrotation Zrotation
				JOINT RightToeBase
				{
					OFFSET -1.551100 -14.988700 20.535801
					CHANNELS 3 Xrotation Yrotation Zrotation
					JOINT RightToe_End
					{
						OFFSET -0.221200 0.570900 13.248299
						CHANNELS 3 Xrotation Yrotation Zrotation
						End Site
						{
							OFFSET 0.000000 13.262440 0.000000
						}
					}
				}
			}
		}
	}
}
MOTION
Frames: 8
Frame Time: 0.033333
0.067547 50.686981 9.218907 0.146020 -0.077762 0.868895 10.430358 0.123525 -1.493666 -0.199229 0.188682 -0.348780 -0.199533 0.232338 -0.310649 -1.001767 -1.284411 0.469442 -8.883502 -4.327128 -5.321592 -0.000000 0.000000 0.000000 0.821047 -15.261563 -7.866407 4.746917 -21.216091 -54.861848 -0.000042 -62.198045 -0.000048 31.063164 4.315425 41.769831 -0.225462 2.803062 -26.912914 0.396821 2.121270 -21.189301 0.083130 0.984451 -9.653137 -0.000001 0.000002 -0.000001 6.610617 1.798227 20.801488 2.716378 20.172571 -24.389173 -5.537231 29.849515 5.070892 0.000002 0.000000 -0.000001 3.171330 -4.379806 8.782910 -3.950514 37.253631 63.734080 -0.000024 55.137703 0.000024 43.537060 4.740950 -36.278195 -9.383506 -1.613343 -17.604717 3.556948 -24.337147 34.656793 -6.608453 -37.497308 -11.176163 0.000003 -0.000002 -0.000001 2.957832 1.012853 13.529993 0.472457 -2.045683 26.006732 0.059745 -0.744419 9.177804 0.000001 -0.000001 0.000001 -88.311122 -8.303084 14.574562 82.344720 2.960214 -0.537026 7.639016 -6.781823 -8.235258 -0.103098 0.000005 0.000002 -0.000000 0.000001 0.000000 -89.574147 9.730163 -10.626867 82.880138 -2.618447 -1.089093 8.645104 -0.168638 9.291573 -0.191619 -0.000005 -0.000003 -0.000000 -0.000001 0.000000 
0.057516 50.687569 9.197495 0.106333 -0.090272 0.896936 10.395871 0.124061 -1.464948 -0.263732 0.189130 -0.279582 -0.263635 0.233875 -0.240893 -1.080405 -1.327525 0.557461 -9.705143 -4.496752 -5.084019 -0.000000 0.000000 -0.000001 0.843403 -15.160064 -7.757725 4.319503 -21.340286 -54.742829 -0.000018 -62.421836 -0.000023 32.777473 7.702352 39.380135 -0.297873 2.195337 -20.040543 0.403013 2.137160 -21.355877 0.114002 1.151315 -11.309570 -0.000000 -0.000002 -0.000000 6.240315 0.117196 20.271457 3.014203 21.080750 -23.275686 -5.789486 29.448050 5.365443 -0.000001 0.000001 -0.000000 3.205232 -4.152618 9.112041 -5.463555 35.972595 63.986660 0.000000 56.690013 0.000008 40.191125 1.521472 -30.813876 -8.078310 -1.495593 -17.278359 3.220312 -24.099892 33.755116 -6.151320 -35.699561 -11.791727 0.000000 0.000001 0.000004 3.547633 1.976746 15.065826 0.473084 -2.046963 26.024062 0.088351 -0.903791 11.165858 0.000001 0.000000 0.000003 -88.255941 -8.286321 14.583704 82.309763 2.980219 -0.537076 7.663760 -6.794511 -8.246291 -0.103098 0.000005 0.000002 -0.000000 -0.000001 0.000000 -89.562228 9.712256 -10.619243 82.863732 -2.604127 -1.090632 8.674537 -0.167582 9.250227 -0.191619 -0.000005 -0.000003 -0.000000 0.000000 0.000000 
0.055617 50.680573 9.162930 -0.046946 -0.124818 0.894136 10.388124 0.126274 -1.429353 -0.276027 0.194321 -0.188651 -0.275843 0.239497 -0.149944 -1.283972 -1.355742 0.617347 -10.578296 -4.642031 -4.774562 0.000000 0.000000 0.000000 0.874254 -15.072161 -7.542053 3.436634 -21.201771 -55.016743 -0.000047 -63.130332 -0.000044 34.418515 11.564165 34.623434 -0.281986 1.629514 -13.695200 0.411147 2.157846 -21.572995 0.157224 1.349483 -13.289838 0.000002 -0.000001 -0.000001 5.925077 -1.582889 19.440460 3.242279 22.317332 -22.112148 -6.156885 29.168477 5.574504 0.000001 -0.000002 -0.000000 3.232762 -3.931503 9.415952 -6.848151 34.825495 64.166800 0.000007 58.103203 0.000001 37.413078 -2.666301 -25.549617 -6.777942 -1.347190 -16.959976 2.898324 -23.865224 32.855805 -5.730391 -33.918668 -12.447410 -0.000001 -0.000003 -0.000000 4.088138 2.962242 16.557321 0.473246 -2.047308 26.028666 0.121690 -1.058752 13.112627 -0.000001 -0.000002 -0.000001 -88.118162 -8.287401 14.621266 82.316026 2.976671 -0.537533 7.677615 -6.799727 -8.240298 -0.103098 0.000005 0.000002 -0.000000 0.000001 0.000000 -89.443294 9.672051 -10.604258 82.843221 -2.580524 -1.092338 8.714020 -0.166060 9.209611 -0.191619 -0.000004 -0.000003 0.000000 -0.000000 0.000000 
0.036600 50.682907 9.131744 -0.159658 -0.136457 0.959284 10.394996 0.146413 -1.391944 -0.260794 0.198591 -0.119795 -0.260525 0.240766 -0.080722 -1.507679 -1.412675 0.690945 -11.712099 -4.929200 -4.403446 -0.000000 -0.000000 0.000000 0.892488 -14.791797 -7.453277 2.235851 -20.870592 -55.287625 0.000013 -64.907732 0.000009 34.449753 15.062418 26.482773 -0.254284 1.275672 -11.068232 0.328201 1.935068 -19.250267 0.218583 1.586917 -15.684749 -0.000002 -0.000000 0.000000 5.645183 -3.285035 18.393155 3.445272 23.786296 -20.950594 -6.613139 28.971641 5.730443 0.000001 0.000004 -0.000001 3.260406 -3.706600 9.732426 -8.323202 33.613608 64.398398 -0.000035 59.596495 0.000035 35.188957 -6.847276 -20.366234 -5.477375 -1.179929 -16.639114 2.569415 -23.620454 31.959944 -5.321536 -32.151364 -13.135142 0.000001 -0.000003 0.000001 4.573551 3.983788 18.041006 0.473664 -2.048177 26.040552 0.160759 -1.214323 15.082393 0.000000 0.000002 -0.000003 -87.972270 -8.240711 14.619791 82.265394 2.993371 -0.537607 7.701140 -6.801189 -8.263675 -0.103098 0.000006 0.000002 -0.000000 0.000001 0.000000 -89.377690 9.674307 -10.623289 82.840953 -2.544716 -1.094338 8.745278 -0.164598 9.142062 -0.191619 -0.000005 -0.000003 0.000000 0.000000 0.000000 
0.036997 50.671585 9.138389 0.018949 -0.090244 1.008208 10.351222 0.157436 -1.344545 -0.342874 0.180957 -0.033695 -0.342571 0.223279 0.005133 -1.635758 -1.465917 0.747372 -12.813979 -5.217197 -4.086418 -0.000000 0.000000 0.000000 0.918326 -14.794844 -7.398510 0.996762 -19.805911 -55.823464 0.000022 -66.994477 0.000035 33.381904 17.082327 19.499148 -0.179019 1.129109 -14.039041 0.090966 1.029542 -10.099831 0.310027 1.882269 -18.704654 -0.000000 -0.000001 0.000002 5.379096 -4.967902 17.240634 3.667196 25.352443 -19.840766 -6.916428 28.725088 5.871007 0.000001 0.000002 0.000000 3.292299 -3.470859 10.090279 -10.062365 32.168927 64.778757 0.000032 61.347229 -0.000037 33.473446 -10.218404 -15.195706 -4.174626 -1.001538 -16.308424 2.225101 -23.345204 31.071050 -4.905834 -30.395640 -13.849679 0.000000 0.000002 -0.000003 4.993905 5.053334 19.543022 0.474865 -2.050607 26.073945 0.206925 -1.374146 17.125712 0.000000 0.000000 -0.000000 -88.151384 -8.211016 14.540621 82.213826 3.033759 -0.537578 7.750337 -6.803863 -8.275906 -0.103098 0.000005 0.000002 -0.000000 0.000000 0.000000 -89.574311 9.756994 -10.654379 82.843112 -2.554767 -1.092721 8.774990 -0.164145 9.169864 -0.191619 -0.000006 -0.000003 -0.000000 -0.000000 -0.000000 
0.038717 50.665108 9.128918 -0.055995 -0.128751 1.022706 10.338242 0.157027 -1.309688 -0.362392 0.177041 0.056295 -0.362015 0.218560 0.095127 -1.844511 -1.519954 0.864059 -13.794816 -5.430863 -3.839339 -0.000000 0.000000 -0.000000 0.961634 -14.945318 -7.156086 -0.191951 -18.242530 -56.669680 -0.000081 -69.418600 -0.000077 31.798226 19.319296 14.951241 -0.046326 1.252738 -21.335971 0.011766 0.371523 -3.627826 0.405700 2.144026 -21.427731 0.000001 0.000002 -0.000001 5.110632 -6.621382 16.052985 3.935190 26.935309 -18.813618 -7.005987 28.384398 6.021314 -0.000001 0.000001 0.000002 3.337311 -3.204470 10.553749 -12.385528 30.151785 65.490968 0.000038 63.694806 -0.000053 31.996872 -11.626217 -9.634674 -2.857424 -0.830993 -15.945222 1.845905 -23.006046 30.199589 -4.449239 -28.649184 -14.588727 -0.000001 -0.000000 0.000001 5.332039 6.197356 21.128890 0.478141 -2.057295 26.165507 0.263661 -1.546257 19.351666 -0.000000 -0.000003 -0.000000 -88.073411 -8.213022 14.564130 82.240320 3.046262 -0.539081 7.730071 -6.803939 -8.291913 -0.103098 0.000005 0.000002 -0.000000 -0.000001 -0.000000 -89.532196 9.740240 -10.646337 82.851540 -2.521022 -1.094456 8.785295 -0.163284 9.136052 -0.191619 -0.000006 -0.000003 -0.000000 -0.000001 0.000000 
0.023364 50.675049 9.154863 0.097802 -0.103300 1.106902 10.316296 0.159400 -1.268042 -0.401771 0.155050 0.127963 -0.401389 0.196747 0.166809 -2.116921 -1.580735 1.005275 -14.710399 -5.621510 -3.709715 -0.000000 0.000000 -0.000000 0.996576 -14.828341 -6.936361 -1.484393 -16.451537 -57.788509 0.000045 -71.970748 0.000055 29.527126 20.412695 13.712338 0.042767 1.758049 -31.159606 0.078574 0.957306 -9.384670 0.457003 2.270318 -22.759768 0.000000 -0.000001 -0.000000 4.814323 -8.207242 14.998206 4.290819 28.304312 -17.908064 -7.119945 27.976593 6.241565 0.000000 0.000001 0.000000 3.403954 -2.903703 11.171219 -15.547628 27.201297 66.678574 -0.000010 67.118254 0.000008 30.136782 -8.276033 -4.783513 -1.555723 -0.667097 -15.562758 1.391782 -22.555233 29.333842 -3.915546 -26.902904 -15.333858 -0.000004 -0.000002 0.000001 5.537990 7.440154 22.782171 0.483224 -2.067603 26.306771 0.334274 -1.734239 21.818974 -0.000000 -0.000001 -0.000000 -88.159997 -8.172633 14.502049 82.186785 3.094984 -0.539655 7.722642 -6.804905 -8.345546 -0.103098 0.000005 0.000002 -0.000000 0.000000 0.000000 -89.694953 9.813685 -10.674648 82.879626 -2.509721 -1.094476 8.766187 -0.163440 9.124380 -0.191619 -0.000005 -0.000003 -0.000000 -0.000000 0.000000 
0.011624 50.686920 9.175806 0.170557 -0.108235 1.162425 10.300919 0.156674 -1.230220 -0.419991 0.128993 0.210626 -0.419624 0.169426 0.249279 -2.383675 -1.638126 1.137444 -15.570427 -5.789724 -3.651613 0.000000 0.000001 0.000000 1.026818 -14.698822 -6.807567 -2.981913 -13.989066 -59.207017 -0.000077 -75.067372 -0.000077 27.823703 20.623543 11.863700 0.096522 1.879749 -36.053201 0.154306 1.337039 -13.165196 0.497379 2.364169 -23.758250 -0.000001 -0.000001 -0.000000 4.474613 -9.737423 14.290481 4.738498 29.269901 -17.157241 -7.290144 27.487620 6.562705 -0.000001 -0.000000 -0.000001 3.466220 -2.514024 11.858889 -18.818867 23.971906 67.689927 -0.000118 71.079634 0.000100 28.989106 -2.445076 -2.170242 -0.406730 -0.407610 -15.330076 0.899076 -22.035794 28.400864 -3.400573 -25.148577 -16.053420 -0.000000 0.000000 0.000001 5.611312 8.672741 24.125726 0.482140 -2.065374 26.276257 0.405697 -1.902880 24.069103 -0.000000 -0.000000 0.000000 -88.172312 -8.153970 14.481015 82.179935 3.129605 -0.540221 7.678485 -6.804748 -8.391002 -0.103098 0.000005 0.000002 -0.000000 -0.000001 0.000000 -89.771990 9.844358 -10.682316 82.897289 -2.485929 -1.095361 8.746249 -0.173395 9.103233 -0.191619 -0.000004 -0.000003 0.000000 0.000001 0.000000 
